<svg xmlns="http://www.w3.org/2000/svg" width="43.043" height="43.044" viewBox="0 0 43.043 43.044">
  <path id="Trazado_191037" data-name="Trazado 191037" d="M559.241,61.426V73.144a.787.787,0,1,1-1.574,0V61.426a.787.787,0,0,1,1.574,0M544.35,66.943a.787.787,0,0,0-1.112,1.113l8.286,8.285a.787.787,0,0,0,1.112-1.112Zm5.875,15.219a.787.787,0,0,0-.786-.787H537.72a.787.787,0,0,0,0,1.573h11.718a.786.786,0,0,0,.786-.786m1.3,5.82-8.286,8.286a.787.787,0,1,0,1.112,1.112l8.286-8.286a.787.787,0,0,0-1.112-1.112m6.932,2.411a.788.788,0,0,0-.787.787V102.9a.787.787,0,1,0,1.574,0V91.179a.787.787,0,0,0-.786-.787m6.934-2.411a.787.787,0,1,0-1.113,1.112l8.286,8.286a.787.787,0,1,0,1.112-1.112Zm13.8-6.607H567.473a.787.787,0,0,0,0,1.573H579.19a.787.787,0,0,0,0-1.573m-14.358-4.8a.786.786,0,0,0,.556-.231l8.285-8.285a.787.787,0,0,0-1.112-1.113l-8.286,8.286a.787.787,0,0,0,.557,1.343" transform="translate(-536.934 -60.64)" fill="#fff"/>
</svg>
