<svg xmlns="http://www.w3.org/2000/svg" width="23.863" height="23.863" viewBox="0 0 23.863 23.863">
  <path id="Trazado_191036" data-name="Trazado 191036" d="M138.346,147.566v6.3a.787.787,0,1,1-1.574,0v-6.3a.787.787,0,0,1,1.574,0m-8.111,2.709a.787.787,0,0,0-1.112,1.112l4.453,4.453a.787.787,0,1,0,1.112-1.112Zm3.264,8.437a.787.787,0,0,0-.786-.787h-6.3a.787.787,0,1,0,0,1.574h6.3a.786.786,0,0,0,.786-.786m.077,2.87-4.453,4.454a.787.787,0,1,0,1.112,1.112l4.453-4.454a.787.787,0,0,0-1.112-1.112m3.983,1.19a.787.787,0,0,0-.786.786v6.3a.787.787,0,0,0,1.574,0v-6.3a.788.788,0,0,0-.787-.786m3.984-1.19a.787.787,0,0,0-1.112,1.112l4.453,4.454A.787.787,0,0,0,146,166.036Zm7.161-3.658h-6.3a.787.787,0,1,0,0,1.574h6.3a.787.787,0,1,0,0-1.574m-7.717-1.853a.783.783,0,0,0,.556-.231L146,151.387a.787.787,0,0,0-1.112-1.112l-4.453,4.453a.787.787,0,0,0,.557,1.343" transform="translate(-125.627 -146.78)" fill="#fff"/>
</svg>
